<?xml version="1.0" standalone="no"?>
<!DOCTYPE svg PUBLIC "-//W3C//DTD SVG 20010904//EN"
 "http://www.w3.org/TR/2001/REC-SVG-20010904/DTD/svg10.dtd">
<svg version="1.0" xmlns="http://www.w3.org/2000/svg"
 width="150.000000pt" height="150.000000pt" viewBox="0 0 150.000000 150.000000"
 preserveAspectRatio="xMidYMid meet">
<metadata>
Created by potrace 1.14, written by Peter Selinger 2001-2017
</metadata>
<g transform="translate(0.000000,150.000000) scale(0.100000,-0.100000)"
fill="#000000" stroke="none">
<path d="M694 1337 c-78 -42 -122 -91 -144 -161 -24 -76 -6 -195 33 -220 24
-16 33 1 18 37 -37 91 -30 171 22 239 104 136 314 115 386 -37 52 -111 6 -246
-102 -300 l-51 -25 -332 0 c-283 0 -333 -2 -337 -15 -4 -8 -1 -17 4 -21 14 -8
641 -6 677 2 76 19 150 79 182 150 59 128 3 286 -122 348 -70 35 -173 36 -234
3z"/>
<path d="M1310 1004 c0 -9 22 -37 50 -64 27 -26 50 -53 52 -59 2 -9 -43 -12
-167 -14 -153 -2 -170 -4 -173 -19 -3 -17 10 -18 172 -18 97 0 176 -3 176 -7
0 -5 -27 -34 -60 -67 -48 -47 -58 -61 -49 -73 13 -15 20 -10 118 88 84 84 85
70 -10 165 -82 83 -109 99 -109 68z"/>
<path d="M105 594 c-89 -46 -103 -85 -105 -286 l-1 -159 33 3 33 3 0 60 0 60
120 1 c66 0 125 -1 132 -4 7 -2 11 -24 10 -60 l-2 -57 33 -3 32 -3 1 53 c5
247 -4 308 -50 354 -14 15 -40 33 -58 40 -44 19 -141 18 -178 -2z m165 -60
c38 -23 56 -68 56 -139 l-1 -60 -125 -1 c-70 -1 -128 3 -131 8 -4 6 -5 38 -3
71 4 66 23 103 65 124 34 18 106 16 139 -3z"/>
<path d="M586 600 c-39 -12 -74 -47 -85 -86 -21 -76 17 -124 123 -155 136 -39
158 -56 140 -108 -19 -53 -133 -64 -216 -21 -22 12 -42 20 -43 18 -1 -2 -8
-13 -14 -26 -11 -21 -9 -24 41 -47 40 -19 70 -25 123 -25 115 0 181 49 179
132 -2 54 -42 91 -121 113 -141 39 -166 58 -149 113 15 45 110 60 188 31 l48
-19 6 26 c4 17 2 29 -7 35 -42 27 -152 37 -213 19z"/>
<path d="M1026 589 c-85 -45 -99 -86 -99 -284 l-1 -150 32 -3 32 -3 0 63 0 63
130 1 c146 0 134 8 131 -83 -2 -43 -2 -43 35 -43 l36 0 -3 168 c-4 164 -5 170
-32 210 -35 53 -85 78 -162 81 -45 1 -70 -4 -99 -20z m183 -65 c34 -29 51
-100 42 -179 -1 -7 -50 -11 -131 -11 l-131 -1 2 64 c4 110 41 152 136 153 41
0 58 -5 82 -26z"/>
</g>
</svg>
